<svg xmlns="http://www.w3.org/2000/svg" xmlns:xlink="http://www.w3.org/1999/xlink" fill="none" version="1.1" width="68" height="45" viewBox="0 0 68 45"><defs><clipPath id="master_svg0_16_2287"><rect x="0" y="0" width="68" height="45" rx="0"/></clipPath></defs><g clip-path="url(#master_svg0_16_2287)"><g><path d="M17.675,9.075L14.3,5.71875L11.65625,8.3625L15.0125,11.71875L17.675,9.075ZM12.5,19.68745L6.875,19.68745L6.875,23.43745L12.5,23.43745L12.5,19.68745ZM29.375,1.03125L25.625,1.03125L25.625,6.5625L29.375,6.5625L29.375,1.03125ZM43.3438,8.3625L40.7,5.71875L37.3438,9.075L39.9875,11.71875L43.3438,8.3625ZM37.325,34.05005L40.6813,37.42495L43.325,34.78125L39.95,31.42495L37.325,34.05005ZM42.5,19.68745L42.5,23.43745L48.125,23.43745L48.125,19.68745L42.5,19.68745ZM27.5,10.3125C21.293799999999997,10.3125,16.25,15.35625,16.25,21.56245C16.25,27.76875,21.293799999999997,32.81255,27.5,32.81255C33.706199999999995,32.81255,38.75,27.76875,38.75,21.56245C38.75,15.35625,33.706199999999995,10.3125,27.5,10.3125ZM25.625,42.09375L29.375,42.09375L29.375,36.56245L25.625,36.56245L25.625,42.09375ZM11.65625,34.76255L14.3,37.40625L17.6562,34.03125L15.0125,31.38755L11.65625,34.76255Z" fill="#F3A953" fill-opacity="1"/><path d="M25.125,7.0625L29.875,7.0625L29.875,0.53125L25.125,0.53125L25.125,7.0625ZM28.875,6.0625L26.125,6.0625L26.125,1.53125L28.875,1.53125L28.875,6.0625ZM36.6366,9.075L39.9875,12.42585L40.3411,12.07235L44.0509,8.3625L40.7,5.01164L36.6366,9.075ZM10.94914,8.3625L15.01125,12.42465L15.3648,12.07355L18.3844,9.07526L14.299019999999999,5.01263L10.94914,8.3625ZM15.01375,11.01289L12.36336,8.3625L14.30098,6.42487L16.965600000000002,9.07473L15.01375,11.01289ZM39.9875,11.01164L38.0509,9.075L40.7,6.42586L42.6366,8.3625L39.9875,11.01164ZM35.8059,29.86835Q39.25,26.42425,39.25,21.56245Q39.25,16.70075,35.8059,13.25665Q32.3618,9.8125,27.5,9.8125Q22.638199999999998,9.8125,19.1941,13.25665Q15.75,16.70075,15.75,21.56245Q15.75,26.42425,19.1941,29.86835Q22.638199999999998,33.31245,27.5,33.31245Q32.3618,33.31245,35.8059,29.86835ZM35.0988,13.96375Q38.25,17.11495,38.25,21.56245Q38.25,26.01005,35.0988,29.16125Q31.9476,32.31245,27.5,32.31255Q23.0524,32.31245,19.9012,29.16125Q16.75,26.01005,16.75,21.56245Q16.75,17.11495,19.9012,13.96375Q23.0524,10.8125,27.5,10.8125Q31.9476,10.8125,35.0988,13.96375ZM6.375,23.93745L13,23.93745L13,19.18745L6.375,19.18745L6.375,23.93745ZM42,23.93745L48.625,23.93745L48.625,19.18745L42,19.18745L42,23.93745ZM12,22.93745L12,20.18745L7.375,20.18745L7.375,22.93745L12,22.93745ZM47.625,20.18745L43,20.18745L43,22.93745L47.625,22.93745L47.625,20.18745ZM18.3624,34.03025L15.01151,30.67945L14.65796,31.03495L10.95013,34.76345L14.300989999999999,38.11435L18.3624,34.03025ZM44.0331,34.78025L39.949,30.71885L39.5965,31.07145L36.6189,34.04905L40.6803,38.13305L44.0331,34.78025ZM15.01349,32.09555L12.36237,34.76155L14.299009999999999,36.69815L16.9501,34.03225L15.01349,32.09555ZM39.951,32.131150000000005L38.031099999999995,34.05095L40.6822,36.71695L42.6169,34.78225L39.951,32.131150000000005ZM29.875,42.59375L29.875,36.06245L25.125,36.06245L25.125,42.59375L29.875,42.59375ZM26.125,37.06245L26.125,41.59375L28.875,41.59375L28.875,37.06245L26.125,37.06245Z" fill-rule="evenodd" fill="#FFFFFF" fill-opacity="1"/></g></g></svg>